{"title":"50 Cent Ft. Kidd Kidd - Shooting Guns (h264/mp4)","uid":7058053,"size":53205766,"categoryP":"video","categoryS":"music_videos","magnet":"?xt=urn:btih:d030f0e6d37d67cb7c76c2f597565ddc52b55d51&amp;dn=50+Cent+Ft.+Kidd+Kidd+-+Shooting+Guns+%28h264%2Fmp4%29&amp;tr=udp%3A%2F%2Ftracker.openbittorrent.com%3A80&amp;tr=udp%3A%2F%2Fopen.demonii.com%3A1337&amp;tr=udp%3A%2F%2Ftracker.coppersurfer.tk%3A6969&amp;tr=udp%3A%2F%2Fexodus.desync.com%3A6969","seeders":2,"leechers":0,"uploader":"MusicVideos-HQ","files":1,"time":1330225672,"description":"General\n\nFormat                           : MPEG-4\nFormat profile                   : Base Media\nCodec ID                         : isom\nFile size                        : 50.7 MiB\nDuration                         : 4mn 52s\nOverall bit rate                 : 1 455 Kbps\nEncoded date                     : UTC 2012-02-19 16:52:59\nTagged date                      : UTC 2012-02-19 16:52:59\n\nVideo\nID                               : 1\nFormat                           : AVC\nFormat/Info                      : Advanced Video Codec\nFormat profile                   : &lt;a class=&quot;__cf_email__&quot; href=&quot;/cdn-cgi/l/email-protection&quot; data-cfemail=&quot;82caebe5eac2ceb1acb2&quot;&gt;[email&amp;#160;protected]&lt;/a&gt;&lt;script cf-hash='f9e31' type=&quot;text/javascript&quot;&gt;\n/* &lt;![CDATA[ */!function(){try{var t=&quot;currentScript&quot;in document?document.currentScript:function(){for(var t=document.getElementsByTagName(&quot;script&quot;),e=t.length;e--;)if(t[e].getAttribute(&quot;cf-hash&quot;))return t[e]}();if(t&amp;&amp;t.previousSibling){var e,r,n,i,c=t.previousSibling,a=c.getAttribute(&quot;data-cfemail&quot;);if(a){for(e=&quot;&quot;,r=parseInt(a.substr(0,2),16),n=2;a.length-n;n+=2)i=parseInt(a.substr(n,2),16)^r,e+=String.fromCharCode(i);e=document.createTextNode(e),c.parentNode.replaceChild(e,c)}}}catch(u){}}();/* ]]&gt; */&lt;/script&gt;\nFormat settings, CABAC           : Yes\nFormat settings, ReFrames        : 2 frames\nCodec ID                         : avc1\nCodec ID/Info                    : Advanced Video Coding\nDuration                         : 4mn 52s\nBit rate mode                    : Variable\nBit rate                         : 1 418 Kbps\nMaximum bit rate                 : 4 249 Kbps\nWidth                            : 720 pixels\nHeight                           : 480 pixels\nDisplay aspect ratio             : 16:9\nOriginal display aspect ratio    : 16:9\nFrame rate mode                  : Constant\nFrame rate                       : 29.970 fps\nStandard                         : NTSC\nColor space                      : YUV\nChroma subsampling               : 4:2:0\nBit depth                        : 8 bits\nScan type                        : Progressive\nBits/(Pixel*Frame)               : 0.137\nStream size                      : 48.5 MiB (96%)\n\nAudio\nID                               : 2\nFormat                           : AAC\nFormat/Info                      : Advanced Audio Codec\nFormat profile                   : LC\nCodec ID                         : 40\nDuration                         : 4mn 52s\nBit rate mode                    : Variable\nBit rate                         : 57.2 Kbps\nMaximum bit rate                 : 72.1 Kbps\nChannel(s)                       : 2 channels\nChannel positions                : Front: L R\nSampling rate                    : 44.1 KHz\nCompression mode                 : Lossy\nStream size                      : 1.99 MiB (4%)\n\n","torrent":{"xt":"urn:btih:d030f0e6d37d67cb7c76c2f597565ddc52b55d51","amp;dn":"50+Cent+Ft.+Kidd+Kidd+-+Shooting+Guns+%28h264%2Fmp4%29","amp;tr":["udp%3A%2F%2Ftracker.openbittorrent.com%3A80","udp%3A%2F%2Fopen.demonii.com%3A1337","udp%3A%2F%2Ftracker.coppersurfer.tk%3A6969","udp%3A%2F%2Fexodus.desync.com%3A6969"],"infoHash":"d030f0e6d37d67cb7c76c2f597565ddc52b55d51","infoHashBuffer":{"type":"Buffer","data":[208,48,240,230,211,125,103,203,124,118,194,245,151,86,93,220,82,181,93,81]},"announce":[],"urlList":[]}}